# Blender 3.6.5
# www.blender.org

v 1.248630 -1.754051 -2.295327
v 2.576881 -1.754051 2.661772
v 3.100960 3.006160 -2.791657
v 4.429211 3.006160 2.165442
vn -0.8960 0.3737 0.2401
vt 0.000000 0.000000
vt 1.000000 0.000000
vt 1.000000 1.000000
vt 0.000000 1.000000
v -2.560937 -1.754051 -0.196418
v 2.571029 -1.754051 -0.196418
v -2.560937 3.006160 -2.114091
v 2.571029 3.006160 -2.114091
vn -0.0000 0.3737 0.9276
vt 0.000000 0.000000
vt 1.000000 0.000000
vt 1.000000 1.000000
vt 0.000000 1.000000

v -2.467110 -1.754051 2.661772
v -1.138859 -1.754051 -2.295327
v -4.319440 3.006160 2.165442
v -2.991189 3.006160 -2.791657
vn 0.8960 0.3737 0.2401
vt 0.000000 0.000000
vt 1.000000 0.000000
vt 1.000000 1.000000
vt 0.000000 1.000000

v -2.560937 -0.867557 2.612441
v 2.571029 -0.867557 2.612441
v -2.560937 -0.867557 -2.519526
v 2.571029 -0.867557 -2.519526
vn -0.0000 1.0000 -0.0000
vt 0.000000 0.000000
vt 1.000000 0.000000
vt 1.000000 1.000000
vt 0.000000 1.000000

s 0
f 1/1/1 2/2/1 4/3/1 3/4/1
f 5/5/2 6/6/2 8/7/2 7/8/2
f 9/9/3 10/10/3 12/11/3 11/12/3
f 13/13/4 14/14/4 16/15/4 15/16/4
